<?xml version="1.0" encoding="utf-8"?>
<!DOCTYPE svg PUBLIC "-//W3C//DTD SVG 1.0//EN" "http://www.w3.org/TR/2001/REC-SVG-20010904/DTD/svg10.dtd">
<svg version="1.0" xmlns="http://www.w3.org/2000/svg" width="177px" height="137px" viewBox="0 0 177 137" preserveAspectRatio="xMidYMid meet">
 <g fill-opacity="0">
  <path d="M0 68.50 l0 -68.50 40.25 0 40.25 0 0 1.50 c0 1.40 -0.10 1.50 -1.95 1.50 -1.10 0 -2.15 0.25 -2.30 0.50 -0.15 0.30 -0.85 0.50 -1.55 0.50 -0.65 0 -1.20 0.20 -1.20 0.45 0 0.25 -0.95 0.60 -2.10 0.80 -1.10 0.20 -3.25 1.15 -4.70 2.05 -1.85 1.20 -3.25 1.70 -4.60 1.70 -1.35 0 -2.65 0.45 -4.15 1.50 -1.20 0.80 -2.45 1.50 -2.75 1.50 -0.85 0 -2.20 1.70 -2.20 2.75 0 0.55 -0.70 1.70 -1.60 2.60 -2.35 2.40 -1 2 2.05 -0.60 5.60 -4.80 9.35 -6.85 16.75 -9.20 6.75 -2.15 12.25 -3.35 17.15 -3.75 5.20 -0.40 6.65 0.15 6.65 2.55 0 0.90 -0.20 1.65 -0.50 1.65 -0.25 0 -0.50 0.35 -0.50 0.75 0 0.60 -0.70 0.70 -3.55 0.65 -2.10 -0.05 -3.70 0.15 -3.90 0.50 -0.15 0.30 -1.35 0.60 -2.55 0.75 -1.25 0.10 1.40 0.20 5.90 0.25 l8.10 0.10 0 1.75 c0 1.75 0 1.75 -2.20 1.75 -1.20 0 -2.30 0.25 -2.40 0.55 -0.10 0.30 -1.60 0.60 -3.35 0.70 -1.75 0.10 -3.30 0.30 -3.45 0.45 -0.15 0.15 -1.30 0.30 -2.60 0.30 -2.65 0 -8.25 2.50 -14.10 6.30 -1.90 1.20 -3.55 2.20 -3.70 2.20 -0.10 0 -1.90 1.60 -3.95 3.60 -4.05 3.85 -6.50 7.25 -8.05 11 -0.50 1.35 -1.25 2.40 -1.55 2.40 -0.35 0 -0.65 0.40 -0.65 0.85 0 0.65 0.45 0.45 1.90 -0.90 1 -0.95 3 -2.50 4.35 -3.45 l2.50 -1.75 6.25 0 c5.70 0 6.45 0.10 8.40 1.20 1.15 0.70 2.10 1.40 2.10 1.65 0 0.20 0.45 0.40 1 0.40 0.80 0 1 0.35 1 1.75 0 1.15 -0.25 1.75 -0.70 1.75 -0.75 0 -1.40 2.40 -0.75 2.80 0.25 0.15 0.45 -0.20 0.45 -0.80 0 -0.95 0.25 -1.05 2.10 -0.90 2.75 0.20 3.75 1.65 4.20 6 0.30 2.95 0.25 3.35 -0.60 3.55 -0.85 0.20 -0.85 0.25 -0.05 0.30 0.70 0.05 0.85 0.55 0.85 2.80 0 2 -0.20 2.75 -0.70 2.75 -0.45 0 -0.75 0.90 -1 2.65 -0.45 3.90 -0.35 4.85 0.40 4.85 0.75 0 1.30 1.50 1.30 3.80 0 1.20 -0.25 1.65 -1.10 1.95 -1 0.30 -1 0.40 -0.25 0.60 0.60 0.15 0.85 0.75 0.85 1.95 0 0.95 0.25 1.70 0.50 1.70 0.55 0 0.65 1.65 0.20 3.95 -0.20 0.85 -0.65 1.55 -1 1.55 -0.50 0 -0.70 0.70 -0.70 2.50 0 1.80 0.20 2.50 0.70 2.50 0.55 0 0.75 1.35 1 6.15 0.20 3.35 0.25 6.80 0.20 7.60 -0.05 0.85 -0.05 2.55 0 3.80 l0.10 2.30 4.05 0.55 c3.45 0.45 4.25 0.40 5.60 -0.30 2 -1.05 2.35 -1.50 2.35 -3.20 0 -1.30 0.15 -1.40 2 -1.40 1.90 0 2 0.10 2 1.50 0 0.85 0.20 1.50 0.50 1.50 0.65 0 1.20 3.20 0.80 4.75 -0.20 0.80 -0.65 1.25 -1.30 1.25 -0.55 0 -1 0.20 -1 0.40 0 0.75 -11.55 1.60 -16.60 1.25 l-4.85 -0.30 0 -17.55 c0 -9.65 0 -19.65 0 -22.25 l-0.05 -4.75 -1.40 1.35 c-0.80 0.75 -2.20 1.60 -3.15 1.85 -2.80 0.85 -15.50 -0.30 -16.45 -1.45 -0.15 -0.15 -1.10 -0.95 -2.10 -1.70 -1.05 -0.75 -1.90 -1.75 -1.90 -2.15 0 -0.35 -0.45 -0.70 -1 -0.70 -0.80 0 -1 -0.35 -1 -1.75 l0 -1.75 2.65 0 c2.05 0 2.90 0.25 3.60 1 0.95 1.05 7.75 3.50 9.70 3.50 1.30 0 6.05 -2.55 7.10 -3.80 0.45 -0.55 0.05 -0.45 -1.15 0.25 -1.30 0.80 -3 1.15 -6.50 1.40 l-4.70 0.30 -2.55 -1.85 c-1.40 -1 -2.75 -1.80 -3.05 -1.80 -0.30 0 -0.65 -0.40 -0.75 -0.85 -0.20 -0.70 -0.25 -0.70 -0.30 0.15 -0.05 1.05 -0.15 1.05 -7.90 0.80 -5.95 -0.15 -8 -0.40 -8.30 -0.90 -0.45 -0.75 -2.25 -0.90 -3.15 -0.30 -1 0.65 -1.20 3.60 -0.45 7.20 0.45 2 0.85 3.65 0.90 3.70 0.05 0.10 3.15 -0.05 6.80 -0.35 4.30 -0.30 6.90 -0.30 7.25 0 0.35 0.30 1.55 0.65 2.75 0.85 2.80 0.45 3.55 1.30 3.55 4 0 2.15 -0.05 2.20 -1.70 2.20 -0.90 0 -2.90 -0.25 -4.35 -0.55 -1.50 -0.30 -6.10 -0.50 -10.30 -0.50 -10.25 0.10 -9.95 0.35 -10.90 -9.20 -0.95 -9.50 -0.95 -9.60 0.55 -11 1.35 -1.25 1.35 -1.25 9.65 -0.95 4.55 0.20 9.70 0.35 11.45 0.40 l3.10 0.05 -0.05 -2.25 c-0.05 -2.10 -0.05 -2.15 -0.55 -0.85 -0.45 1.20 -0.70 1.35 -2.95 1.35 -1.35 0 -2.45 -0.20 -2.45 -0.45 0 -0.25 -1 -0.30 -2.25 -0.15 l-2.25 0.25 0 -2.95 c0 -3.85 0.75 -8.35 1.75 -10.30 0.90 -1.90 0.95 -3.05 0.15 -2.80 -0.35 0.15 -0.95 1.55 -1.30 3.20 -0.35 1.60 -0.95 4.10 -1.25 5.45 -0.30 1.40 -0.50 3.55 -0.40 4.90 l0.10 2.35 -1.75 0 c-1.25 0 -1.80 -0.20 -1.80 -0.75 0 -0.40 -0.35 -0.75 -0.80 -0.75 -0.75 0 -0.80 -0.65 -0.60 -5.40 0.15 -3.05 0.60 -6.10 1 -7.10 1.10 -2.60 1.50 -4.50 0.90 -4.50 -0.25 0 -0.50 0.45 -0.50 1 0 0.65 -0.35 1 -1 1 -1.25 0 -2.10 1.65 -1.70 3.30 0.20 0.70 -0.10 3.75 -0.60 6.75 l-0.90 5.45 -1.65 0.30 c-0.90 0.15 -1.65 0.50 -1.65 0.75 0 0.25 -1.65 0.45 -3.60 0.45 -2 0 -3.40 0.20 -3.05 0.40 0.45 0.25 0.60 2.20 0.50 6.60 -0.05 4.65 0.10 6.90 0.70 8.75 0.45 1.40 1.10 3.80 1.45 5.35 0.65 3.30 0.25 3.15 8.75 3.65 3.20 0.20 5.40 0.55 6.15 1.05 0.80 0.50 2.30 0.80 4.40 0.75 2.25 0 3.20 0.20 3.20 0.60 0 0.35 0.45 1 1 1.50 0.55 0.45 1 1.20 1 1.60 0 0.40 0.45 1 1 1.35 0.55 0.35 1 0.80 1 1.05 0 0.20 0.90 1.25 2 2.30 1.10 1.05 2 2.25 2 2.65 0 1.05 2.15 2.90 3.40 2.90 0.65 0 1.10 0.30 1.10 0.75 0 1.15 0.85 0.90 1.20 -0.35 0.15 -0.65 0.30 -2 0.30 -3.05 0 -1.50 0.20 -2 1 -2.20 1.50 -0.40 1.30 -2.15 -0.25 -2.15 -1 0 -1.50 -0.55 -2.75 -2.95 -0.80 -1.65 -1.95 -3.30 -2.50 -3.70 -0.85 -0.60 -1.05 -1.15 -0.90 -2.65 0.15 -1.90 0.20 -1.95 2.35 -2.10 1.80 -0.15 2.40 0.05 3.70 1.25 3.05 2.85 5 9.30 3 9.80 -0.60 0.15 -0.45 0.25 0.40 0.30 l1.30 0.05 0.15 6.15 c0.20 8.45 0.20 13.75 -0.10 23.60 -0.20 4.95 -0.10 9.40 0.20 10.60 0.90 3.85 0.10 3.70 20.15 3.80 l17.85 0.10 1.15 -1.35 c1 -1.15 1.15 -2.05 1.50 -8.50 0.25 -3.90 0.35 -12.50 0.30 -19 l-0.10 -11.90 1.25 0 c0.95 0 1.30 -0.25 1.30 -1 0 -0.80 0.35 -1 1.75 -1 l1.75 0 0 3 0 3.05 1.40 -0.75 c0.80 -0.40 2 -1.35 2.65 -2.10 0.65 -0.75 2.65 -2.75 4.35 -4.40 1.75 -1.65 3.55 -3.70 3.95 -4.50 0.40 -0.80 1.30 -2 1.90 -2.70 1.10 -1.20 1.50 -1.25 9.35 -1.65 10.55 -0.50 11.05 -0.65 13.05 -3.10 l1.60 -2.05 -0.15 -9.30 c-0.15 -6.25 -0.40 -9.55 -0.80 -10.20 -0.55 -0.80 -1.15 -0.95 -3.95 -0.85 -4.70 0.15 -5.45 -0.60 -5.80 -5.95 -0.20 -2.25 -0.60 -4.20 -0.90 -4.40 -0.30 -0.20 -0.75 -1.55 -0.95 -3 -0.15 -1.40 -0.50 -2.60 -0.70 -2.60 -0.70 0 -1.55 -2.80 -1.45 -4.55 0.15 -1.85 -1.25 -4.40 -2.40 -4.45 -0.35 0 -0.65 -0.60 -0.65 -1.40 0 -1.60 -1.25 -3.60 -2.25 -3.60 -0.35 0 -0.85 -0.50 -1.05 -1.10 -0.15 -0.60 -0.75 -1.55 -1.25 -2.10 -0.55 -0.55 -0.95 -1.30 -0.95 -1.65 0 -0.35 -0.50 -0.90 -1.10 -1.15 -1.95 -0.85 -10.50 -7 -11.50 -8.30 -0.55 -0.65 -1.25 -1.20 -1.65 -1.20 -0.35 0 -0.75 -0.20 -0.85 -0.40 -0.30 -0.75 -8.05 -4 -11.40 -4.80 -1.80 -0.40 -4.65 -0.90 -6.35 -1.10 -2.90 -0.30 -3.15 -0.45 -3.15 -1.50 l0 -1.20 40.75 0 40.75 0 0 68.50 0 68.50 -88.50 0 -88.50 0 0 -68.50z m67.50 -13.25 c0.70 -0.85 0.25 -2.55 -0.80 -2.95 -0.90 -0.35 -2.70 0.50 -2.70 1.25 0 2.05 2.25 3.20 3.50 1.70z m-18.80 -21.70 c1.60 -2.50 1.60 -2.55 0.05 -2.55 -1.10 0 -1.25 0.20 -1.25 2 0 1.10 -0.20 2 -0.50 2 -0.25 0 -0.50 0.60 -0.45 1.40 0 1.25 0.05 1.30 0.45 0.25 0.25 -0.60 1 -2 1.70 -3.10z m-6.20 -2.65 c0 -0.25 -0.25 -0.40 -0.50 -0.40 -0.30 0 -0.65 0.70 -0.85 1.50 -0.15 0.85 -0.50 1.65 -0.70 1.80 -0.25 0.15 -0.45 0.65 -0.45 1.10 0.05 0.75 2.40 -3.15 2.50 -4z m10.50 -3.55 c0 -0.20 -0.55 0.25 -1.25 0.95 -0.70 0.70 -1.25 1.50 -1.25 1.75 0 0.30 0.55 -0.15 1.25 -0.95 0.70 -0.85 1.25 -1.60 1.25 -1.75z m-6.75 -2.60 c2.65 -4.15 2.70 -4.25 1.10 -2.50 -1.80 1.95 -4.85 6.50 -4.85 7.30 0 0.70 1.10 -0.75 3.75 -4.80z"/>
  <path d="M96.30 100.70 c-0.15 -0.45 -0.30 -2.45 -0.30 -4.50 l0 -3.70 2 0 2 0 0 4.50 0 4.50 -1.70 0 c-1.10 0 -1.80 -0.30 -2 -0.80z"/>
  <path d="M96.25 90.95 c-0.20 -0.30 -0.20 -1.75 0 -3.25 0.30 -2.70 0.35 -2.70 2.05 -2.70 l1.70 0 0 3.25 0 3.25 -1.70 0 c-0.95 0 -1.90 -0.25 -2.05 -0.55z"/>
  <path d="M111.50 86.60 c0 -0.75 0.45 -2.60 1 -4.10 1.45 -4.15 4.35 -6.40 12.25 -9.65 3.45 -1.40 3.65 -1.45 11.40 -1.25 l7.85 0.15 0 -1.55 c0 -0.85 0.35 -1.85 0.75 -2.20 0.50 -0.40 0.75 -1.50 0.75 -3 l0 -2.40 -3.10 -0.30 c-5.55 -0.60 -7.15 -0.55 -9.30 0.15 -1.15 0.40 -2.10 1 -2.10 1.40 0 0.95 -4.55 5.15 -5.60 5.15 -0.50 0 -0.90 0.20 -0.90 0.40 0 0.90 -4.40 2.60 -8.75 3.40 -4.25 0.75 -4.75 0.75 -7.35 0 -1.55 -0.45 -3.15 -1.15 -3.60 -1.55 -0.40 -0.40 -0.95 -0.75 -1.25 -0.75 -0.30 0 -0.55 -0.20 -0.55 -0.50 0 -0.25 -0.20 -0.50 -0.50 -0.50 -0.25 0 -0.50 0.30 -0.50 0.70 0 0.40 -0.40 0.80 -0.85 0.90 -0.80 0.15 -0.90 0.85 -0.90 6.40 l0 6.25 -1.85 0.15 c-1.90 0.15 -1.90 0.15 -1.95 -1.75 -0.30 -7.85 -0.30 -11.95 0.05 -12.15 0.20 -0.15 0.20 -1.60 -0.05 -3.25 -0.20 -1.65 -0.30 -6.10 -0.15 -9.90 0.25 -7.65 0.75 -8.85 3.35 -8.85 l1.45 0 -0.35 -3.20 -0.35 -3.20 2.15 -1.60 c1.20 -0.90 2.85 -1.95 3.65 -2.35 1.90 -1 11.50 -1.55 12 -0.70 0.20 0.30 1.15 0.55 2.10 0.55 1.60 0 1.70 0.10 1.70 1.75 0 1.40 -0.20 1.75 -1 1.75 -1.35 0 -1.35 2.15 0 3.60 l1 1.10 0 -2.05 c0 -1.70 0.20 -2.10 1.15 -2.35 1.95 -0.50 3.85 -0.35 3.85 0.40 0 0.35 0.35 0.95 0.75 1.30 0.40 0.35 0.75 1.45 0.75 2.45 0 1.30 0.30 2 1.05 2.50 1 0.60 1.05 0.55 0.65 -0.30 -0.25 -0.50 -0.45 -1.95 -0.45 -3.25 0 -1.95 -0.20 -2.45 -1.15 -3 -1.10 -0.55 -1.55 -1.25 -3.90 -6 -0.55 -1.05 -1.25 -1.85 -1.55 -1.90 -0.35 0 -0.65 -0.20 -0.65 -0.40 0 -0.20 -1.45 -1.90 -3.25 -3.70 -2.20 -2.30 -3.25 -3.70 -3.25 -4.55 0 -0.80 -0.35 -1.30 -1 -1.50 -0.80 -0.20 -1 -0.70 -1 -2.30 l0 -2.05 2.25 0 2.25 0 0 1.95 c0 1.90 0.05 1.95 2.15 2.15 2.55 0.30 2.85 0.10 1.45 -0.90 -0.60 -0.40 -1.10 -1 -1.10 -1.30 0 -1.15 -2.10 -3.40 -3.20 -3.40 -1.55 0 -4.20 -1.40 -4.80 -2.50 -0.30 -0.50 -0.50 -1.75 -0.50 -2.70 0 -1.75 0.05 -1.80 2 -1.80 2 0 7 2.55 7 3.55 0 0.25 0.25 0.45 0.55 0.45 0.90 0 6.45 4.05 8.60 6.25 1.05 1.10 2.50 3.05 3.15 4.35 0.65 1.25 1.75 3.15 2.45 4.20 0.80 1.15 1.25 2.55 1.25 3.75 0 1.85 -0.05 1.90 -2.30 2.25 -2 0.30 -2.25 0.45 -2.05 1.40 0.30 1.15 1.35 5.05 2.55 9.30 0.45 1.50 0.80 4 0.80 5.55 l0 2.85 -4.75 0.35 c-3.60 0.25 -4.75 0.50 -4.75 1.05 0 0.60 1.80 0.70 10.35 0.70 13.80 0 14.15 0.15 14.15 5.80 0 2.35 -0.10 2.60 -1.25 2.90 -1.35 0.35 -1.75 1.80 -0.50 1.80 0.60 0 0.75 0.75 0.75 3.65 0 3.35 -0.15 3.80 -1.60 5.55 l-1.60 1.95 -8 -0.30 c-4.45 -0.10 -9.15 0 -10.55 0.25 -1.35 0.25 -3 0.60 -3.60 0.70 -0.65 0.10 -1.15 0.55 -1.15 0.95 0 0.35 -0.50 0.85 -1.10 1.05 -1.50 0.45 -5.85 5.20 -5.90 6.35 0 0.70 -0.45 0.85 -2.75 0.85 -2.65 0 -2.75 -0.05 -2.75 -1.40z m5.40 -20.25 c1.40 -0.60 1.15 -0.65 -3.05 -0.65 -2.70 0.05 -5.05 -0.20 -5.70 -0.60 -0.95 -0.50 -1 -0.45 -0.80 0.40 0.15 0.55 0.80 1.05 1.60 1.15 2.90 0.45 6.50 0.30 7.95 -0.30z m-13.15 -6.20 c-0.35 -0.80 -0.90 -1.95 -1.20 -2.65 -0.45 -1.10 -0.45 -1.05 -0.20 0.50 0.15 0.95 0.65 2.15 1.05 2.65 1.05 1.20 1.15 1.05 0.35 -0.50z m11.75 -4.90 c0.70 -0.85 0.25 -2.55 -0.80 -2.95 -0.90 -0.35 -2.70 0.50 -2.70 1.25 0 2.05 2.25 3.20 3.50 1.70z m10.45 -5.10 c-0.05 -1.95 -0.10 -2.15 -0.45 -1.15 -0.60 1.80 -0.60 3.50 0 3.50 0.30 0 0.50 -1.05 0.45 -2.35z m-15 -8.10 c0.40 -0.25 0.45 -0.55 0.15 -0.75 -0.25 -0.15 -0.75 0.05 -1.10 0.45 -0.70 0.80 -0.15 1 0.95 0.30z m21.05 -8.30 c0 -0.70 -0.80 -2.05 -2 -3.35 l-2 -2.15 0 1.40 c0 1.65 2.25 5.35 3.25 5.35 0.45 0 0.75 -0.45 0.75 -1.25z m-4.50 -6.40 c0 -0.10 -0.55 -0.85 -1.25 -1.65 -0.70 -0.80 -1.25 -1.60 -1.25 -1.80 0 -0.25 -0.20 -0.40 -0.45 -0.40 -0.65 0 -0.05 2.05 0.85 3.15 0.65 0.70 2.10 1.20 2.10 0.70z"/>
  <path d="M137.85 52.65 c-0.20 -0.15 -0.35 -1.05 -0.35 -1.90 0 -1.40 0.20 -1.65 1.55 -1.95 3.55 -0.70 3.95 -0.50 3.95 1.95 l0 2.25 -2.40 0 c-1.35 0 -2.60 -0.15 -2.75 -0.35z"/>
  <path d="M137 44 l0 -2.50 2.25 0 2.25 0 0 2.20 c0 2.40 -0.45 2.80 -3.05 2.80 -1.40 0 -1.45 -0.05 -1.45 -2.50z"/>
 </g>
 <g fill="#E8F520">
  <path d="M102.80 134.65 c0.35 -0.20 -6.75 -0.40 -15.70 -0.40 -18.95 0 -18.15 0.20 -19.20 -4.75 -0.30 -1.65 -0.85 -3 -1.15 -3 -0.30 0 -0.25 -0.15 0.10 -0.40 0.40 -0.25 0.70 -2.95 0.85 -8.35 0.15 -4.40 0.40 -9.20 0.60 -10.60 0.30 -2.35 0.25 -2.65 -0.60 -2.65 -0.80 0 -0.80 -0.05 -0.10 -0.60 0.65 -0.55 0.70 -1.30 0.30 -5.40 -0.25 -2.60 -0.70 -4.80 -0.95 -4.90 -0.25 -0.10 -0.45 -0.55 -0.45 -1 0 -1.50 -0.70 -0.05 -0.85 1.80 -0.40 4.50 -0.45 4.85 -1.20 4.65 -0.40 -0.10 -1.50 -0.35 -2.50 -0.50 -2.05 -0.35 -7.30 -4.60 -6.70 -5.50 0.45 -0.80 -0.65 -2.05 -1.50 -1.75 -0.35 0.15 -0.80 0.05 -1 -0.25 -0.15 -0.30 0 -0.55 0.35 -0.55 0.35 -0.05 0.10 -0.35 -0.60 -0.75 -0.75 -0.45 -0.95 -0.70 -0.50 -0.75 0.50 0 0.30 -0.30 -0.50 -0.90 -0.70 -0.45 -1.25 -1.15 -1.30 -1.45 -0.10 -1.40 -0.25 -1.60 -1.15 -1.90 -0.55 -0.15 -0.90 -0.60 -0.75 -0.95 0.20 -0.50 -0.10 -0.60 -0.95 -0.45 -0.70 0.15 -1.40 0 -1.55 -0.30 -0.20 -0.30 -1.25 -0.55 -2.35 -0.55 -1.10 0 -2.40 -0.20 -2.90 -0.50 -0.50 -0.25 -3.15 -0.60 -5.85 -0.75 -8.45 -0.50 -8.05 -0.35 -8.70 -3.65 -0.35 -1.55 -0.90 -3.85 -1.30 -5.10 -0.70 -2.40 -1.75 -10.50 -1.40 -11.05 0.10 -0.20 0.30 -1.25 0.45 -2.40 0.20 -1.60 0.10 -2.05 -0.50 -2.05 -0.90 0 -1 -2 -0.10 -3.10 0.85 -1.05 2.25 -1.45 2.55 -0.75 0.25 0.45 0.35 0.45 0.60 0 0.35 -0.75 2.20 -0.85 2.20 -0.15 0 0.30 0.35 0.50 0.75 0.50 0.40 0 0.75 -0.20 0.75 -0.45 0 -0.25 0.75 -0.60 1.65 -0.75 1.65 -0.30 1.65 -0.35 2.30 -4.20 0.35 -2.10 0.75 -4.25 0.85 -4.70 0.15 -0.55 0 -0.90 -0.45 -0.90 -1.30 0 0.75 -5.70 2.10 -5.90 1.05 -0.15 1.55 -2.10 0.55 -2.10 -0.25 0 -0.50 -0.20 -0.50 -0.50 0 -0.70 1.35 -0.60 1.65 0.15 0.20 0.45 0.30 0.45 0.30 -0.05 0.05 -0.35 -0.35 -0.80 -0.80 -0.95 -0.75 -0.30 -0.70 -0.40 0.30 -0.65 1.45 -0.35 2.45 -2.90 1.40 -3.65 -0.40 -0.30 -0.20 -0.35 0.55 -0.20 0.75 0.20 1.10 0 1.10 -0.45 0 -1.15 2.40 -4.65 6.60 -9.60 2.15 -2.55 3.85 -4.80 3.70 -5.05 -0.70 -1.10 7.10 -6.10 9.70 -6.25 1.90 -0.10 6.50 -2.45 6.50 -3.35 0 -0.25 0.50 -0.45 1.15 -0.40 2.45 0.20 3.35 -0.05 3 -0.85 -0.25 -0.70 -0.05 -0.75 1.25 -0.50 1.15 0.30 1.65 0.15 2 -0.50 0.30 -0.50 0.80 -0.75 1.30 -0.55 0.45 0.20 0.80 0.10 0.80 -0.15 0 -0.70 1.35 -0.60 1.65 0.15 0.15 0.35 0.30 0.25 0.30 -0.25 0.05 -0.80 0.85 -0.90 9.05 -0.90 6.25 0 9 0.15 9 0.55 0 0.35 0.70 0.50 1.75 0.35 0.95 -0.10 1.75 0 1.75 0.25 0 0.25 0.80 0.35 1.75 0.25 0.95 -0.10 1.75 0 1.75 0.25 0 0.25 0.45 0.35 1 0.20 0.55 -0.15 1 -0.05 1 0.25 0 0.30 0.55 0.35 1.25 0.20 0.70 -0.20 1.25 -0.10 1.25 0.15 0 0.30 0.35 0.40 0.75 0.25 0.40 -0.20 0.75 -0.05 0.75 0.30 0 0.35 0.35 0.50 0.75 0.30 0.40 -0.15 0.75 -0.05 0.75 0.25 0 0.30 0.25 0.35 0.50 0.20 0.30 -0.15 0.50 -0.10 0.50 0.15 0 0.55 3.45 2.20 3.95 1.90 0.20 -0.15 0.70 0.20 1.05 0.75 0.40 0.50 0.95 0.95 1.25 0.95 0.25 0 1.15 0.70 2 1.55 1.65 1.65 10.20 7.75 11 7.80 0.30 0 0.95 0.80 1.45 1.80 0.55 1 1.15 1.70 1.40 1.55 0.20 -0.15 0.40 0.25 0.45 0.90 0 0.65 0.15 0.85 0.30 0.55 0.25 -0.70 4.65 5.40 4.65 6.40 0 0.35 0.35 1.05 0.80 1.50 0.80 0.85 1.70 3.90 1.85 6.30 0.05 0.55 0.25 0.95 0.50 0.80 0.20 -0.10 0.35 0.55 0.35 1.45 0 0.95 0.35 2.20 0.80 2.80 0.50 0.75 0.95 2.90 1.20 5.65 0.50 6.15 1.95 7.45 6.50 5.85 1.55 -0.50 1.75 -0.45 2.85 0.80 0.65 0.75 1.15 1.70 1.15 2.10 0 0.40 0.20 0.65 0.45 0.50 0.30 -0.20 0.35 1.20 0.20 3.30 -0.45 6.75 -0.45 10.85 0.05 10.55 0.25 -0.20 0.35 0.05 0.15 0.55 -0.20 0.50 -0.35 1.95 -0.35 3.30 0 2.05 -0.30 2.80 -2 4.95 -1.15 1.45 -2.25 2.45 -2.55 2.25 -0.25 -0.15 -0.80 0 -1.20 0.30 -0.40 0.30 -0.90 0.50 -1.10 0.35 -0.20 -0.10 -3.95 -0.05 -8.30 0.15 -7.60 0.35 -8 0.40 -9.10 1.60 -0.60 0.70 -1.50 1.90 -1.90 2.70 -0.40 0.80 -2.20 2.85 -3.95 4.50 -1.70 1.65 -3.70 3.65 -4.35 4.40 -0.65 0.75 -1.90 1.70 -2.75 2.15 -0.85 0.40 -2.05 1.20 -2.65 1.75 -1.50 1.40 -2.35 0.70 -1.95 -1.55 0.30 -2.10 0 -2.80 -1.55 -3.25 l-1.15 -0.35 0.20 11.15 c0.10 6.15 -0.10 14.80 -0.40 19.30 -0.55 7.30 -0.70 8.20 -1.70 9.20 -0.75 0.80 -1.75 1.15 -3.25 1.20 -1.15 0.05 -2.65 0.25 -3.35 0.45 -0.70 0.20 -1 0.15 -0.70 -0.10z m-12.40 -22.65 c0.20 -0.60 2.10 -0.65 2.10 -0.05 0 0.55 5.20 0.05 5.40 -0.50 0.10 -0.25 0.60 -0.45 1.10 -0.45 0.50 0 1 -0.30 1.15 -0.60 0.35 -1.05 -0.20 -2.40 -1 -2.40 -0.55 0 -0.65 -0.35 -0.40 -1.50 0.20 -0.95 0.15 -1.50 -0.20 -1.50 -0.30 0 -0.55 0.60 -0.55 1.40 0 1.75 -0.35 2.15 -2.60 3.30 -1.85 0.95 -4.35 0.95 -9.85 -0.05 -1.35 -0.25 -1.60 -0.15 -1.30 0.40 0.25 0.45 0.05 0.40 -0.50 -0.10 -0.50 -0.50 -0.90 -1.80 -1 -3.25 -0.10 -1.35 -0.20 -2.65 -0.25 -2.95 -0.05 -0.25 0.05 -2.20 0.15 -4.30 0.20 -3.50 0.15 -3.80 -0.70 -3.60 -0.80 0.20 -0.95 0 -0.95 -1.30 0 -1.05 0.25 -1.55 0.75 -1.55 0.50 0 0.75 -0.55 0.75 -1.75 0 -1.15 -0.25 -1.75 -0.70 -1.75 -0.45 0 -0.75 -1 -0.95 -3.25 -0.35 -3.60 -0.10 -4.75 0.95 -4.75 0.40 0 0.70 -0.35 0.70 -0.75 0 -0.40 -0.30 -0.75 -0.70 -0.75 -0.35 0 -0.80 -0.50 -1 -1.10 -0.45 -1.80 -0.35 -2.40 0.45 -2.40 0.40 0 0.75 -0.20 0.75 -0.50 0 -0.25 -0.35 -0.50 -0.75 -0.50 -0.55 0 -0.75 -0.55 -0.75 -1.80 0 -1.35 0.25 -1.85 1 -2.05 1.25 -0.35 1.30 -1.15 0.15 -1.20 -0.55 0 -0.65 -0.15 -0.25 -0.30 0.85 -0.35 0.75 -1.15 -0.15 -1.15 -0.40 0 -0.75 -0.40 -0.75 -0.85 0 -0.45 -0.15 -0.65 -0.35 -0.50 -0.15 0.20 -0.40 10.35 -0.45 22.60 l-0.10 22.20 3.30 0.20 c4.15 0.25 7.30 -0.05 7.50 -0.65z m7.95 -15 c0.05 -1.65 -0.10 -3 -0.35 -3 -0.55 0 -0.70 3.95 -0.20 5.20 0.15 0.45 0.35 0.80 0.40 0.80 0.05 0 0.10 -1.35 0.15 -3z m1 -3.60 c-0.10 -0.90 -0.20 -0.30 -0.20 1.35 0 1.65 0.10 2.40 0.20 1.65 0.10 -0.75 0.10 -2.10 0 -3z m-0.90 -5.25 c-0.05 -1.85 -0.05 -1.85 -0.40 -0.40 -0.35 1.40 -0.25 2.25 0.25 2.25 0.10 0 0.15 -0.85 0.15 -1.85z m-32 -3 c-1.15 -3.05 -4 -6.65 -5.25 -6.65 -1.20 0 -1.30 1.10 -0.25 1.85 0.60 0.40 1.75 2.05 2.55 3.65 1.20 2.35 1.65 2.85 2.45 2.65 0.80 -0.20 0.90 -0.45 0.50 -1.50z m49.05 0.50 c0.05 -1.15 4.40 -5.90 5.85 -6.35 0.60 -0.20 1 -0.65 0.85 -1 -0.25 -0.70 3.50 -2.05 4.30 -1.55 0.30 0.15 0.50 0.05 0.50 -0.30 0 -0.30 0.40 -0.45 1 -0.30 0.55 0.15 1 0.05 1 -0.25 0 -0.25 0.60 -0.35 1.40 -0.20 0.75 0.15 4.55 0.40 8.40 0.55 l7.10 0.30 1.55 -1.90 c1.20 -1.45 1.55 -2.35 1.55 -4 0 -1.75 -0.15 -2.15 -0.90 -2.15 -0.55 0 -1.35 0.50 -1.90 1.10 -0.50 0.60 -0.65 0.90 -0.30 0.70 0.40 -0.25 0.60 -0.05 0.60 0.55 0 1.50 -1.20 2.75 -2.55 2.70 -0.65 0 -4.10 -0.15 -7.70 -0.35 -6.35 -0.30 -6.60 -0.25 -10 1.15 -7.85 3.25 -10.80 5.55 -12.20 9.55 l-0.95 2.60 1.20 0 c0.80 0 1.20 -0.30 1.20 -0.85z m-16.55 -6.55 c0 -1.55 -0.15 -3.65 -0.35 -4.60 l-0.30 -1.75 -0.30 2.25 c-0.35 2.95 0 7.55 0.55 7.25 0.20 -0.15 0.40 -1.55 0.40 -3.15z m-43.95 -2.80 c0 -1.25 -1.35 -2.15 -3.70 -2.50 -1.25 -0.20 -2.40 -0.55 -2.55 -0.85 -0.20 -0.25 -0.65 -0.30 -1.10 0 -0.45 0.25 -2.10 0.30 -3.70 0.20 -1.55 -0.15 -3.55 -0.05 -4.35 0.25 -1.55 0.50 -5.75 0.25 -5.40 -0.35 0.20 -0.30 -0.55 -4.55 -1.45 -8.40 -0.15 -0.75 -0.65 -1.15 -1.30 -1.15 -0.95 0 -1 0.20 -0.70 3.40 0.75 8.40 0.85 8.55 6.70 8.90 2.50 0.15 4.05 0.05 4.05 -0.25 0 -0.65 4.15 -0.45 4.60 0.20 0.25 0.35 0.65 0.35 1.25 0 1.05 -0.60 3.15 -0.40 3.15 0.30 0 0.65 1.70 0.55 2.40 -0.15 0.45 -0.45 0.60 -0.40 0.60 0.25 0 0.45 0.35 0.85 0.75 0.85 0.40 0 0.75 -0.30 0.75 -0.70z m59 -5.40 c0 -0.30 0.65 -0.40 1.50 -0.20 0.95 0.15 1.50 0.05 1.50 -0.25 0 -0.35 0.45 -0.45 1.05 -0.30 1.35 0.35 5.05 -1.65 4.70 -2.55 -0.20 -0.55 0.05 -0.65 0.85 -0.45 0.90 0.25 1.70 -0.20 3.55 -1.90 1.30 -1.25 2.35 -2.55 2.35 -2.95 0 -0.35 0.55 -0.85 1.25 -1 0.85 -0.20 1.15 -0.55 0.90 -1.15 -0.25 -0.65 -0.10 -0.75 0.90 -0.45 1.55 0.50 3.55 0.40 4.10 -0.15 0.25 -0.25 1.10 -0.25 1.85 -0.05 0.80 0.25 1.55 0.30 1.70 0.10 0.15 -0.15 0.30 -0.05 0.30 0.25 0 0.85 1.30 1.15 2.95 0.65 0.95 -0.25 1.55 -0.25 1.55 0.05 0 0.25 0.45 0.45 1 0.45 0.90 0 1.20 0.60 1.15 2.40 -0.05 0.65 0.60 0.70 2.05 0.15 0.85 -0.35 0.85 -0.40 0.10 -1.15 -0.65 -0.65 -0.65 -0.85 -0.10 -1.05 1.15 -0.45 0.35 -2.10 -1.30 -2.75 -0.95 -0.35 -4.80 -0.50 -10.70 -0.45 l-9.20 0.10 -0.40 1.25 c-0.75 2 -5.85 6.90 -8.35 8 -2.50 1.05 -7.90 1.40 -11.35 0.75 -1.70 -0.35 -1.90 -0.25 -1.90 0.60 0 1.05 2.20 2.40 3.05 1.90 0.25 -0.20 0.45 -0.10 0.45 0.20 0 0.25 0.50 0.55 1.15 0.65 1.60 0.25 3.35 -0.15 3.35 -0.70z m-43 0.05 c0 -0.35 0.45 -0.45 1.05 -0.30 0.85 0.20 1.75 -0.35 3.95 -2.45 1.55 -1.50 3.20 -2.70 3.60 -2.70 0.95 0 1.40 -1.45 1.40 -4.60 0 -1.80 0.20 -2.40 0.75 -2.40 0.45 0 0.75 -0.45 0.75 -1.25 0 -0.80 -0.30 -1.25 -0.75 -1.25 -0.50 0 -0.75 -0.55 -0.75 -1.75 0 -1.20 0.25 -1.75 0.70 -1.75 1.50 0 -0.30 -5.80 -2 -6.35 -0.25 -0.10 -0.45 0.85 -0.45 2.05 0 1.25 0.15 2.10 0.35 2 0.40 -0.25 0.70 3.65 0.50 6.95 -0.25 3.80 -3.35 7.80 -8.10 10.50 -3.65 2.05 -5.60 2.10 -10.70 0.35 -2.45 -0.80 -5 -2 -5.65 -2.60 -1.15 -1.05 -1.15 -1.05 -1.15 -0.05 0 0.95 2 3.30 2 2.35 0 -0.25 0.25 -0.05 0.55 0.45 0.30 0.45 0.70 0.75 1 0.60 0.25 -0.20 0.45 0 0.45 0.40 0 0.75 2.75 1.55 3.55 1.05 0.25 -0.15 0.45 0 0.45 0.25 0 0.70 1.65 0.70 2.35 0 0.40 -0.40 0.85 -0.40 1.60 0.05 0.60 0.30 1.55 0.40 2.05 0.25 0.60 -0.20 1 -0.10 1 0.20 0 0.30 0.35 0.55 0.75 0.55 0.40 0 0.75 -0.25 0.75 -0.55z m29.25 -3.20 c-0.05 -1.75 0.90 -3.55 1.60 -3.10 0.25 0.15 0.75 0.10 1.15 -0.15 0.50 -0.30 0.35 -0.75 -0.85 -1.95 -0.85 -0.80 -1.40 -1.65 -1.25 -1.80 0.15 -0.15 0 -0.25 -0.40 -0.25 -0.50 0 -0.50 -0.15 0 -0.75 0.55 -0.65 0.50 -0.70 -0.15 -0.45 -0.50 0.15 -1 -0.10 -1.30 -0.75 -0.70 -1.30 -0.70 -1.55 0.20 -1.55 0.40 0 0.80 -0.30 0.80 -0.60 0.20 -1.60 -0.05 -3.15 -0.55 -3.30 -0.75 -0.25 -0.60 -1.10 0.20 -1.10 0.65 0 1.30 -1 1.30 -2.05 0 -0.25 -0.30 -0.45 -0.65 -0.45 -1.25 0 -2.10 1.75 -2.25 4.75 -0.35 7.80 -0.30 9.25 0.05 9.25 0.25 0 0.40 0.85 0.30 1.90 -0.20 3.70 0 4.50 0.95 4.25 0.70 -0.15 0.90 -0.65 0.85 -1.90z m5.30 -1.40 c-0.65 -0.65 -3.05 -0.90 -3.05 -0.30 0 0.25 0.25 0.45 0.50 0.45 0.30 0 0.50 0.35 0.50 0.75 0 0.60 0.20 0.65 1.25 0.15 0.85 -0.40 1.10 -0.75 0.80 -1.05z m13 -2.60 c2.65 -0.15 5.95 -3.60 5.95 -6.20 0 -0.50 -0.30 -1.10 -0.60 -1.20 -0.35 -0.15 -0.15 -0.30 0.45 -0.30 0.85 -0.05 1.05 -0.25 0.80 -0.90 -0.20 -0.50 -0.60 -1.10 -1 -1.30 -0.35 -0.20 -0.65 -0.75 -0.65 -1.15 0 -1.20 -1.85 -4.50 -3.50 -6.10 -0.80 -0.85 -1.50 -1.75 -1.50 -2 0 -0.60 -1.75 -1.10 -4 -1.10 -3.20 0 -5.60 1 -8.20 3.50 -2.45 2.30 -2.55 2.50 -2.50 5.10 0 4.05 1.25 7.35 3.75 10.05 1.45 1.55 4.40 2.40 7.20 2 1.40 -0.15 3.10 -0.35 3.80 -0.40z m-48.15 -0.70 c1 -0.55 2.60 -1.80 3.55 -2.75 0.95 -1 2.05 -1.80 2.50 -1.85 0.50 0 0.60 -0.10 0.20 -0.30 -0.35 -0.10 -0.65 -1 -0.65 -1.95 0 -1.35 0.20 -1.70 0.95 -1.70 0.70 0 0.90 -0.25 0.70 -1 -0.15 -0.55 -0.60 -1 -0.95 -1 -0.40 0 -0.70 -0.20 -0.70 -0.50 0 -0.25 0.25 -0.50 0.55 -0.50 1.30 0 -0.25 -2.90 -2.65 -5.15 -5.40 -4.95 -11.70 -4.25 -16.60 1.80 -1.40 1.75 -1.55 2.25 -1.55 5.50 0 3.55 0.95 6.85 2 6.85 0.25 0 1.50 0.80 2.75 1.75 1.95 1.45 2.65 1.70 5.15 1.70 1.95 0.05 3.50 -0.25 4.75 -0.90z m-37.15 -3.15 c1.95 -1.15 6.65 -1.25 7.10 -0.15 0.20 0.65 1.25 0.75 5.65 0.70 2.95 0 5.65 -0.25 6.05 -0.50 0.60 -0.35 0.60 -0.45 -0.05 -0.45 -0.65 0 -0.65 -0.05 0 -0.50 0.40 -0.25 0.65 -0.50 0.50 -0.50 -3.25 -0.15 -14.60 -0.55 -16.95 -0.60 -2.60 0 -3.50 0.20 -4.40 1 -1.40 1.25 -1.55 2.75 -0.25 2.25 0.45 -0.20 1.55 -0.75 2.35 -1.25z m19.45 -9.65 c0.80 -1.85 2.45 -4.35 3.85 -5.85 1.30 -1.40 2.30 -2.75 2.15 -2.95 -0.30 -0.50 3.15 -1.60 3.80 -1.20 0.25 0.15 0.50 0.05 0.50 -0.25 0 -0.55 2.65 -0.40 5.10 0.30 0.65 0.20 0.80 0.05 0.60 -0.50 -0.15 -0.45 -0.05 -0.80 0.25 -0.80 0.35 0 0.70 0.35 0.85 0.75 0.20 0.50 0.65 0.65 1.25 0.50 0.65 -0.20 0.95 -0.05 0.95 0.45 0 0.45 0.35 0.80 0.75 0.80 0.45 0 0.90 0.35 1.10 0.80 0.25 0.65 0.35 0.65 0.70 0.10 0.75 -1.20 0.50 -1.70 -1.65 -2.90 -1.85 -1.05 -2.85 -1.20 -6.90 -1.25 -4.60 0 -4.80 0.05 -7.25 1.75 -4.15 2.85 -7.25 6.05 -7.75 8.10 -0.40 1.30 -1 2.05 -2.10 2.60 -1.75 0.90 -3.40 1.05 -3.40 0.30 0 -0.95 1.20 -3 1.75 -3 0.35 0 0.95 -1.15 1.40 -2.55 1 -3.05 1.05 -3.80 0.30 -4.05 -0.90 -0.30 0.40 -2.40 1.45 -2.40 0.60 0 1.40 -1.05 2.35 -3.10 1.05 -2.25 2.75 -4.45 5.85 -7.60 2.40 -2.45 4.25 -4.65 4.10 -4.90 -0.20 -0.25 0.10 -0.40 0.60 -0.35 0.55 0.10 2.65 -0.85 4.70 -2.15 2.05 -1.30 5.25 -3.05 7.15 -3.90 1.85 -0.90 3.35 -1.80 3.35 -2.05 0 -0.30 0.75 -0.35 1.75 -0.15 1.15 0.20 1.75 0.10 1.75 -0.25 0 -0.75 1.50 -0.70 1.50 0.10 0 0.30 0.45 0.05 0.95 -0.60 0.80 -1.10 1 -1.10 2.35 -0.45 1.75 0.85 4 0.60 4.40 -0.45 0.25 -0.65 -0.45 -0.70 -5.30 -0.60 -6.05 0.15 -8.30 0.75 -14.65 3.65 -3.20 1.50 -4.55 2.30 -9.75 5.80 -2.05 1.40 -7.30 7.05 -9.50 10.25 -1.90 2.75 -4.50 7.65 -4.50 8.45 0 0.35 -0.35 1.35 -0.75 2.20 -1.20 2.35 -2.45 11.40 -1.35 9.80 0.55 -0.85 3.60 -0.75 3.95 0.10 0.60 1.65 1.95 0.65 3.35 -2.55z m77.30 2.70 c0 -0.35 0.85 -0.45 2.60 -0.20 l2.55 0.35 -0.30 -2.65 c-0.45 -3.60 -2 -7.95 -2.70 -7.55 -0.85 0.55 -0.90 1.65 -0.15 3.95 0.35 1.15 0.50 2.45 0.35 2.85 -0.40 1 -2.30 1 -3.75 0 -1.05 -0.70 -1.10 -0.70 -1.10 0.40 0 2.15 0.60 3.40 1.55 3.40 0.55 0 0.95 -0.25 0.95 -0.55z m-89.50 -2.65 c0 -0.65 -0.30 -1.35 -0.60 -1.45 -0.45 -0.20 -0.35 -0.30 0.15 -0.30 1.05 -0.05 2.50 -5.60 1.55 -5.95 -0.85 -0.25 -0.75 -1.60 0.15 -1.60 0.40 0 0.75 -0.20 0.75 -0.50 0 -0.25 -0.20 -0.50 -0.50 -0.50 -0.25 0 -0.50 -0.20 -0.50 -0.50 0 -0.25 0.35 -0.50 0.75 -0.50 0.90 0 1 -0.80 0.15 -1.15 -0.40 -0.15 -0.25 -0.30 0.25 -0.30 0.50 -0.05 0.75 -0.30 0.60 -0.60 -0.55 -0.85 0.80 -3.45 1.80 -3.45 0.55 0 0.95 -0.20 0.95 -0.50 0 -0.25 -0.25 -0.50 -0.55 -0.50 -0.80 0 0 -2.10 1.45 -3.60 0.70 -0.80 1.60 -1.40 1.95 -1.40 0.35 0 2.60 -1.90 5 -4.20 2.45 -2.35 5.55 -5.05 6.90 -6 3.05 -2.20 7.95 -4.80 8.95 -4.80 0.40 0 1.05 -0.45 1.45 -1 0.55 -0.75 1.05 -0.95 2.20 -0.70 1.05 0.20 1.75 0.05 2.35 -0.60 0.50 -0.45 1.55 -0.85 2.35 -0.90 0.80 -0.05 1.45 -0.25 1.45 -0.50 0 -0.20 0.55 -0.30 1.25 -0.20 0.70 0.15 1.25 0.05 1.25 -0.15 0 -0.70 1.40 -0.55 1.65 0.20 0.15 0.35 0.30 0.20 0.30 -0.35 0.05 -0.70 0.30 -0.85 1.30 -0.60 0.80 0.20 1.25 0.10 1.25 -0.25 0 -0.55 2.45 -0.30 4.30 0.40 0.40 0.15 0.70 -0.05 0.70 -0.55 0 -0.45 0.30 -0.80 0.65 -0.80 0.30 0 0.15 -0.30 -0.35 -0.60 -2.25 -1.30 -10.10 -0.05 -20.10 3.15 -7.65 2.45 -9.15 3.30 -18.75 10.70 -2.15 1.65 -7.65 9.65 -9.70 14.15 -2.30 4.95 -3.85 10.20 -4.15 14 -0.20 3.10 -0.10 3.60 0.60 3.60 0.50 0 0.80 -0.40 0.80 -1.20z m101 0.50 c0 -0.45 -0.40 -0.60 -1.25 -0.40 -1.40 0.25 -1.20 1.10 0.30 1.10 0.50 0 0.95 -0.30 0.95 -0.70z m-14.50 -5.35 c0 -0.25 -0.45 -0.70 -0.95 -1.05 -0.50 -0.30 -0.85 -0.85 -0.70 -1.20 0.15 -0.40 -0.10 -0.55 -0.80 -0.35 -1.30 0.35 -1.30 0.40 -0.05 2.20 0.95 1.30 2.50 1.55 2.50 0.40z m13 -1.75 c0 -0.40 -0.35 -0.70 -0.75 -0.70 -0.40 0 -0.75 0.45 -0.75 1 0 0.65 0.25 0.90 0.75 0.70 0.40 -0.20 0.75 -0.60 0.75 -1z m-33.75 -1.25 c0 -0.75 2.50 -2.65 4.10 -3.15 0.50 -0.15 1.40 0.05 1.95 0.45 1.25 0.95 1.70 0.95 1.70 0 0 -1.05 1.35 -0.95 1.95 0.15 0.30 0.45 0.55 0.55 0.55 0.25 0 -1 1.50 -0.75 1.55 0.25 0 0.65 0.10 0.70 0.30 0.10 0.15 -0.40 0.55 -0.90 0.85 -1.10 0.30 -0.20 -0.05 -0.40 -0.80 -0.40 -0.75 0 -1.50 -0.20 -1.65 -0.50 -0.20 -0.30 -1.85 -0.40 -4.15 -0.20 -3.15 0.20 -4.35 0.55 -6.50 1.85 -1.45 0.90 -3 2 -3.45 2.45 -0.70 0.80 -0.70 0.90 0.40 1.35 1.35 0.50 3.20 -0.35 3.20 -1.50z m25.55 -3.70 c-0.35 -1.20 -0.95 -1.90 -1.70 -2.10 -1.05 -0.25 -2.25 -1.85 -6.10 -8.15 -0.70 -1.15 -1.25 -2.35 -1.25 -2.65 0 -0.30 -0.75 -0.75 -1.70 -1 -2.90 -0.75 -2.80 0.50 0.25 3.60 1.50 1.50 2.70 2.90 2.70 3.15 0 0.20 0.30 0.40 0.65 0.40 0.35 0 0.90 0.60 1.25 1.40 2.05 4.65 3.95 7.05 5.65 7.10 0.70 0 0.70 -0.25 0.25 -1.75z m4.20 -5.70 c0 -0.20 -0.55 -1.25 -1.25 -2.25 -0.70 -1.05 -1.80 -2.95 -2.45 -4.20 -0.65 -1.30 -2.10 -3.25 -3.15 -4.35 -1.90 -1.95 -7.70 -6.25 -8.40 -6.25 -0.15 0 0.15 0.65 0.70 1.45 0.60 0.80 1.05 1.65 1.05 1.90 0 0.75 2.50 2.75 2.50 2 0.05 -0.60 0.90 0.30 2.75 2.85 2 2.80 4.15 5.25 4.35 5 0.15 -0.10 0.55 0.50 0.90 1.40 0.35 0.90 0.90 1.95 1.15 2.30 0.55 0.70 1.85 0.80 1.85 0.15z m-19 -11.80 c0 -0.40 -0.35 -0.75 -0.75 -0.75 -0.80 0 -1 0.60 -0.40 1.15 0.55 0.60 1.15 0.40 1.15 -0.40z m3 -5.70 c0 -0.50 -4.75 -3.55 -5.50 -3.55 -0.70 0 -0.60 0.60 0.30 1.90 0.45 0.65 1.10 1.05 1.45 0.90 0.35 -0.10 0.75 0.05 0.90 0.35 0.25 0.70 2.85 1.05 2.85 0.40z"/>
  <path d="M111.25 56.70 c-1.65 -1.80 -1.65 -3.90 0.05 -5.45 1.50 -1.35 2.55 -1.55 4.35 -0.70 1.70 0.75 2.55 2.50 2.10 4.40 -0.65 3.10 -4.35 4.10 -6.50 1.75z"/>
  <path d="M63.25 56.70 c-1.65 -1.80 -1.65 -3.90 0.05 -5.45 1.50 -1.35 2.55 -1.55 4.35 -0.70 1.70 0.75 2.55 2.50 2.10 4.40 -0.65 3.10 -4.35 4.10 -6.50 1.75z"/>
 </g>
 <g fill="#f8eeea">
  <path d="M101.75 134.50 c-0.65 -0.25 -0.70 -0.45 -0.25 -0.45 0.40 0 1.20 0.20 1.75 0.45 0.65 0.25 0.70 0.45 0.25 0.45 -0.40 0 -1.20 -0.20 -1.75 -0.45z"/>
  <path d="M67.50 127.25 c0 -0.40 -0.30 -0.75 -0.60 -0.75 -0.45 0 -0.50 -0.15 -0.10 -0.40 0.30 -0.20 0.70 -0.70 0.85 -1.10 0.15 -0.40 0.30 0.10 0.30 1.15 0.05 1 -0.05 1.85 -0.20 1.85 -0.15 0 -0.25 -0.35 -0.25 -0.75z"/>
  <path d="M90.50 112 c0 -0.25 0.45 -0.50 1 -0.50 0.55 0 1 0.25 1 0.50 0 0.30 -0.45 0.50 -1 0.50 -0.55 0 -1 -0.20 -1 -0.50z"/>
  <path d="M98 111.50 c0 -0.25 0.45 -0.50 0.95 -0.50 0.55 0 1.10 -0.30 1.20 -0.60 0.15 -0.35 0.30 -0.15 0.30 0.50 0.05 0.85 -0.25 1.10 -1.20 1.10 -0.70 0 -1.25 -0.20 -1.25 -0.50z"/>
  <path d="M91.40 109.95 c1.05 -0.30 1.95 -0.30 2.50 0 0.65 0.40 0.25 0.50 -1.65 0.50 -2.40 -0.05 -2.45 -0.05 -0.85 -0.50z"/>
  <path d="M100.05 108.90 c-0.05 -0.50 -0.40 -0.90 -0.85 -0.90 -0.60 0 -0.75 -0.30 -0.50 -1.35 0.20 -0.70 0.15 -1.45 -0.10 -1.60 -0.25 -0.15 -0.60 -1.65 -0.75 -3.30 -0.15 -1.65 -0.15 -2.70 0.05 -2.40 0.20 0.35 0.40 -0.75 0.45 -2.35 0.05 -1.65 -0.10 -3 -0.35 -3 -0.30 0 -0.50 -1.05 -0.50 -2.30 0 -1.55 0.20 -2.15 0.55 -1.90 0.40 0.25 0.45 -0.65 0.20 -3.25 -0.25 -2.45 -0.15 -3.80 0.20 -4.25 0.70 -0.85 0.45 -8.45 -0.30 -9.40 -0.75 -0.95 -0.85 -9.40 -0.15 -9.40 0.35 0 0.55 0.75 0.45 1.90 -0.20 3.80 -0.05 4.55 1.05 4.25 0.90 -0.25 1.05 -0.05 1 1.65 -0.05 1.10 0.05 9.55 0.15 18.80 0.15 9.25 0.10 17.50 -0.15 18.25 -0.25 0.80 -0.45 1 -0.45 0.55z"/>
  <path d="M79.65 96.75 c0 -2.20 0.10 -3.05 0.20 -1.85 0.10 1.15 0.10 2.95 0 4 -0.10 1 -0.20 0.05 -0.20 -2.15z"/>
  <path d="M57.55 96 c-1.45 -1.35 -2.50 -2.65 -2.30 -2.95 0.20 -0.35 1.30 0.35 2.80 1.80 1.40 1.35 3 2.65 3.60 3 1.10 0.60 1.10 0.60 -0.15 0.60 -0.80 0 -2.25 -0.90 -3.95 -2.45z"/>
  <path d="M81.90 96.15 c-1.15 -0.30 -1.25 -3.15 -0.15 -3.15 0.40 0 0.75 0.40 0.80 0.90 0 0.45 0.10 1.25 0.20 1.75 0.10 0.45 0.15 0.80 0.10 0.80 -0.05 -0.05 -0.50 -0.15 -0.95 -0.30z"/>
  <path d="M67.50 94.75 c0 -0.70 -0.20 -1.25 -0.50 -1.25 -0.25 0 -0.50 -0.35 -0.50 -0.80 0 -0.40 -0.20 -0.65 -0.45 -0.50 -0.20 0.15 -0.65 -1 -0.90 -2.60 -0.45 -2.80 -0.40 -2.90 0.65 -3 0.75 -0.05 1.20 0.30 1.40 1.05 0.50 1.60 0.95 8.35 0.60 8.35 -0.15 0 -0.30 -0.55 -0.30 -1.25z"/>
  <path d="M112.60 93.60 c-0.45 -0.30 -0.55 -1.10 -0.35 -2.65 0.55 -4.05 0.75 -4.45 1.75 -4.45 0.80 0 1 0.35 1 1.90 0 2.95 -0.60 5.60 -1.20 5.60 -0.30 0 -0.85 -0.20 -1.20 -0.40z"/>
  <path d="M80.85 86.25 c-0.35 -3.60 -0.10 -4.75 0.95 -4.75 0.55 0 0.70 0.90 0.70 4 0 3.05 -0.15 4 -0.70 4 -0.45 0 -0.75 -1 -0.95 -3.25z"/>
  <path d="M131.50 83.55 c0 -0.50 1.95 -2.30 2.15 -2 0.10 0.10 -0.35 0.70 -1 1.30 -0.65 0.60 -1.15 0.95 -1.15 0.70z"/>
  <path d="M43.25 83.15 c-0.80 -0.15 -1.90 -0.55 -2.45 -0.95 -0.55 -0.40 -1.50 -0.75 -2.05 -0.75 -0.55 -0.05 0.35 -0.25 2 -0.50 3.70 -0.50 6.15 -0.10 6.75 1.10 0.30 0.50 0.50 1 0.50 1.15 0 0.30 -2.35 0.30 -4.75 -0.05z"/>
  <path d="M81.95 80.15 c-0.80 -0.20 -1.45 -1.55 -1.45 -3 0 -1.10 1.40 -0.70 1.80 0.50 0.30 0.85 0.70 3.05 0.50 2.80 -0.05 -0.05 -0.40 -0.15 -0.85 -0.30z"/>
  <path d="M57.25 78.55 c-1.85 -0.95 -2.50 -1.60 -2.55 -2.40 -0.05 -1.50 0.35 -1.45 3.90 0.45 1.80 0.95 2.70 1.70 2.35 1.90 -0.30 0.20 -0.70 0.60 -0.90 0.90 -0.20 0.30 -1.25 0 -2.80 -0.85z"/>
  <path d="M154.85 74.90 c0.70 -2.55 1.30 -4.95 1.30 -5.25 0 -0.35 0.15 -0.50 0.30 -0.35 0.15 0.15 0.25 1.65 0.15 3.35 -0.15 2.30 -0.50 3.60 -1.45 5 -0.70 1 -1.35 1.85 -1.45 1.85 -0.05 0 0.45 -2.10 1.15 -4.60z"/>
  <path d="M122 78.10 c0 -0.60 3.90 -1.75 4.50 -1.35 0.30 0.15 0.50 0.05 0.50 -0.20 0 -0.30 0.35 -0.55 0.75 -0.55 1.65 0 0.60 0.85 -2 1.65 -3.15 0.95 -3.75 1.05 -3.75 0.45z"/>
  <path d="M52 76.80 c0 -0.10 0.35 -0.45 0.75 -0.80 0.60 -0.50 0.75 -0.50 0.75 0.20 0 0.45 -0.35 0.80 -0.75 0.80 -0.40 0 -0.75 -0.10 -0.75 -0.20z"/>
  <path d="M33.80 76.10 c-0.35 -0.60 3.30 -0.70 4.20 -0.10 0.55 0.35 0.10 0.50 -1.60 0.50 -1.30 0 -2.45 -0.20 -2.60 -0.40z"/>
  <path d="M47.45 75.80 c0.30 -0.35 1.10 -0.55 1.80 -0.40 1.90 0.35 1.50 1.10 -0.55 1.10 -1.50 0 -1.70 -0.15 -1.25 -0.70z"/>
  <path d="M129 76 c0 -0.65 1 -0.65 2 0 0.60 0.40 0.45 0.50 -0.60 0.50 -0.80 0 -1.40 -0.20 -1.40 -0.50z"/>
  <path d="M41.50 75.50 c0 -0.25 0.35 -0.50 0.75 -0.50 0.40 0 0.75 0.25 0.75 0.50 0 0.30 -0.35 0.50 -0.75 0.50 -0.40 0 -0.75 -0.20 -0.75 -0.50z"/>
  <path d="M81.35 75.60 c-0.70 -0.15 -0.85 -0.60 -0.75 -2 0.20 -2.60 1.70 -2.85 2 -0.35 0.25 2.10 -0.05 2.60 -1.25 2.35z"/>
  <path d="M145.10 72.40 c0.35 -0.65 0.60 -1.50 0.65 -2 0 -1.35 0.55 -1.45 0.65 -0.10 0.10 1.45 -0.70 3.20 -1.45 3.20 -0.30 0 -0.25 -0.45 0.15 -1.10z"/>
  <path d="M64.40 70.75 c0.85 -0.60 1.30 -0.65 2.10 -0.25 0.60 0.30 1.50 0.40 2 0.25 0.60 -0.20 1 -0.10 1 0.20 0 0.35 -1.25 0.55 -3.10 0.55 -2.95 0 -3.05 -0.05 -2 -0.75z"/>
  <path d="M71 71 c0 -0.25 0.35 -0.50 0.75 -0.50 0.40 0 0.75 0.25 0.75 0.50 0 0.30 -0.35 0.50 -0.75 0.50 -0.40 0 -0.75 -0.20 -0.75 -0.50z"/>
  <path d="M114 70.95 c0 -0.35 0.55 -0.45 1.50 -0.25 0.85 0.15 1.50 0.05 1.50 -0.20 0 -0.30 0.35 -0.50 0.75 -0.50 1 0 0.95 0.80 -0.05 1.20 -1.30 0.50 -3.70 0.35 -3.70 -0.25z"/>
  <path d="M149.05 69.90 c-0.05 -1 -0.30 -1.40 -0.95 -1.40 -0.70 0 -0.90 -0.40 -0.85 -2.25 0 -1.90 0.15 -2.25 1.20 -2.50 0.65 -0.15 1.25 -0.20 1.40 -0.10 0.10 0.15 0 1.90 -0.25 3.90 -0.25 2.05 -0.50 3.10 -0.55 2.35z"/>
  <path d="M81.40 70.15 c0.80 -0.30 0.80 -1.15 -0.05 -1.15 -0.40 0 -0.90 -0.80 -1.20 -1.75 -0.30 -0.95 -0.40 -1.75 -0.15 -1.75 0.20 0 0.55 -1.55 0.75 -3.50 0.50 -4.90 1.50 -4.70 1.90 0.40 0.40 5.10 0 8.10 -1.10 8.05 -0.50 0 -0.55 -0.10 -0.15 -0.30z"/>
  <path d="M104.75 68.70 c-0.85 -0.65 -0.90 -0.80 -0.25 -1.20 0.90 -0.55 0.95 -0.55 2.25 0 0.80 0.35 0.85 0.45 0.15 0.45 -0.45 0.05 -0.90 0.35 -1 0.75 -0.15 0.65 -0.30 0.65 -1.15 0z"/>
  <path d="M122.80 67.75 c-0.15 -0.45 0 -0.75 0.45 -0.75 0.80 0 1 0.80 0.30 1.20 -0.25 0.15 -0.55 -0.05 -0.75 -0.45z"/>
  <path d="M57.75 66.80 c-0.85 -0.35 -1.85 -1.05 -2.25 -1.50 -0.65 -0.80 -0.75 -0.85 -1 -0.05 -0.25 0.65 -0.65 0.45 -2.25 -1.15 -3.25 -3.20 -3.70 -3.95 -2.05 -3.65 0.20 0.05 0.85 -0.05 1.40 -0.25 0.80 -0.25 0.90 -0.40 0.35 -0.75 -0.55 -0.35 -0.50 -0.45 0.20 -0.45 0.45 0 0.85 0.30 0.85 0.70 0 1.30 2.20 4.15 3.90 5.10 0.90 0.50 1.90 1.30 2.15 1.80 0.55 1.05 0.60 1.05 -1.30 0.20z"/>
  <path d="M102.15 66.50 c-0.65 -0.50 -1.15 -1.15 -1.15 -1.40 0 -0.75 2.40 -0.55 3.10 0.30 0.55 0.65 0.50 0.70 -0.50 0.40 -1.15 -0.40 -1.60 0.45 -0.45 0.85 0.30 0.10 0.50 0.35 0.35 0.50 -0.15 0.15 -0.75 -0.15 -1.35 -0.65z"/>
  <path d="M61.45 64.65 c-3.40 -1.90 -5.50 -4.15 -3.90 -4.15 0.35 0 1.70 0.80 3.10 1.80 2.45 1.75 2.55 1.80 5.80 1.45 4 -0.45 5.45 -1.15 7.25 -3.45 0.80 -1.05 1.80 -1.80 2.45 -1.85 0.60 0 0.80 -0.15 0.50 -0.30 -0.35 -0.10 -0.65 -1 -0.65 -1.95 0 -1.40 0.20 -1.70 1.05 -1.70 0.85 0 1 0.20 0.75 1.15 -0.15 0.60 -0.30 1.70 -0.30 2.50 0 1.55 -3.50 5.25 -6.50 6.80 -2.65 1.40 -6.80 1.25 -9.55 -0.30z"/>
  <path d="M108.25 64.35 c-1.40 -0.95 -3.20 -2.70 -4 -3.90 -1.35 -1.95 -1.50 -2.60 -1.40 -5.65 0.05 -1.90 0.35 -3.65 0.70 -4 0.45 -0.40 0.50 -0.10 0.30 1.45 -0.65 4.30 3.05 10.75 6.55 11.55 0.75 0.15 1.65 0.40 2.05 0.50 0.35 0.10 2.05 0 3.65 -0.30 3.30 -0.60 4 -0.40 2.80 0.85 -0.55 0.55 -2 0.85 -4.50 1 -3.50 0.20 -3.75 0.15 -6.15 -1.50z"/>
  <path d="M32 64.65 c0.85 -0.40 0.55 -1.15 -0.45 -1.15 -0.50 0 -1.05 -0.45 -1.20 -1 -0.40 -1.55 3.95 -3.60 7.25 -3.40 1.50 0.10 2.65 0.40 2.80 0.80 0.15 0.45 -0.70 0.60 -3.05 0.60 -3.55 0 -4.55 0.60 -4.60 2.90 0 0.70 -0.30 1.30 -0.65 1.40 -0.35 0.05 -0.40 0 -0.10 -0.15z"/>
  <path d="M97.65 60.50 c0 -1.50 0.10 -2.15 0.20 -1.35 0.10 0.75 0.10 1.95 0 2.75 -0.10 0.75 -0.20 0.10 -0.20 -1.40z"/>
  <path d="M149.15 62.30 c-0.50 -0.55 -0.45 -0.75 0.10 -1 0.50 -0.20 0.75 0.05 0.75 0.70 0 1.15 -0.05 1.20 -0.85 0.30z"/>
  <path d="M101.40 61.80 c-0.50 -0.35 -0.75 -0.80 -0.55 -0.95 0.15 -0.20 0 -0.35 -0.35 -0.35 -0.35 0 -0.55 -0.15 -0.35 -0.30 0.15 -0.15 -0.15 -0.70 -0.70 -1.25 -1.10 -1.10 -1.25 -1.95 -0.25 -1.95 0.40 0 0.85 -0.30 0.95 -0.60 0.15 -0.35 0.30 0.05 0.30 0.95 0.05 0.90 0.50 2.40 1.05 3.40 0.55 0.95 0.95 1.75 0.85 1.75 -0.05 0 -0.50 -0.35 -0.95 -0.70z"/>
  <path d="M142.50 60.80 c0 -0.10 0.55 -0.30 1.25 -0.40 0.70 -0.15 1.25 -0.05 1.25 0.15 0 0.25 -0.55 0.45 -1.25 0.45 -0.70 0 -1.25 -0.10 -1.25 -0.20z"/>
  <path d="M156.20 58.70 c-0.15 -1.25 -0.10 -2.50 0.15 -2.75 0.25 -0.25 0.45 0.65 0.50 2.30 0.05 1.50 0 2.75 -0.10 2.75 -0.10 0 -0.35 -1.05 -0.55 -2.30z"/>
  <path d="M131.50 60 c0 -0.65 1 -0.65 2 0 0.60 0.40 0.45 0.50 -0.60 0.50 -0.80 0 -1.40 -0.20 -1.40 -0.50z"/>
  <path d="M135.25 60.15 c0.55 -0.15 1.20 -0.45 1.45 -0.65 0.20 -0.20 1.05 -0.20 1.80 0 0.80 0.25 1.55 0.30 1.70 0.10 0.15 -0.15 0.30 0 0.30 0.30 0 0.40 -1.05 0.60 -3.10 0.55 -1.75 -0.05 -2.70 -0.15 -2.15 -0.30z"/>
  <path d="M147.50 58.50 c-0.65 -0.45 -0.65 -0.50 0 -0.50 0.40 0 1.10 0.25 1.50 0.50 0.65 0.45 0.65 0.50 0 0.50 -0.40 0 -1.10 -0.25 -1.50 -0.50z"/>
  <path d="M124.50 57.30 c0 -0.40 -0.30 -0.85 -0.60 -0.95 -0.35 -0.15 -0.15 -0.30 0.45 -0.30 0.80 -0.05 1 0.15 0.80 0.95 -0.30 1.15 -0.65 1.30 -0.65 0.30z"/>
  <path d="M97.50 56.20 c0 -0.80 0.25 -1.80 0.50 -2.20 0.30 -0.50 0.35 -0.10 0.15 1.25 -0.35 2.45 -0.65 2.90 -0.65 0.95z"/>
  <path d="M22.25 55.95 c-0.60 -1.75 2.80 -4.35 3.45 -2.65 0.15 0.40 0.05 0.70 -0.25 0.70 -0.25 0 -0.75 0.70 -1 1.50 -0.65 1.75 -1.75 1.95 -2.20 0.45z"/>
  <path d="M81 54.25 c0 -1.20 0.25 -1.75 0.75 -1.75 0.50 0 0.75 0.55 0.75 1.75 0 1.20 -0.25 1.75 -0.75 1.75 -0.50 0 -0.75 -0.55 -0.75 -1.75z"/>
  <path d="M125.05 54.90 c0 -0.50 -0.40 -0.90 -0.80 -0.90 -0.40 0 -0.75 -0.45 -0.75 -1 0 -1.50 -1.75 -4.65 -3.55 -6.45 -0.85 -0.90 -1.45 -1.70 -1.30 -1.85 0.40 -0.45 4.10 2.10 4.95 3.40 1.15 1.75 2.05 5 1.75 6.40 -0.10 0.70 -0.25 0.90 -0.30 0.40z"/>
  <path d="M100 53.75 c0 -0.40 -0.20 -0.75 -0.50 -0.75 -0.25 0 -0.50 -0.20 -0.50 -0.50 0 -0.25 0.35 -0.50 0.75 -0.50 0.45 0 0.75 0.45 0.75 1.25 0 0.70 -0.10 1.25 -0.25 1.25 -0.15 0 -0.25 -0.35 -0.25 -0.75z"/>
  <path d="M152.25 53.55 l-3 -0.30 2.20 -0.65 c2.05 -0.65 2.25 -0.60 3.25 0.35 0.55 0.60 0.90 1 0.80 0.95 -0.15 -0.05 -1.60 -0.20 -3.25 -0.35z"/>
  <path d="M26.50 53 c0 -0.25 0.45 -0.50 1 -0.50 0.55 0 1 0.25 1 0.50 0 0.30 -0.45 0.50 -1 0.50 -0.55 0 -1 -0.20 -1 -0.50z"/>
  <path d="M30 53 c0 -0.25 0.30 -0.50 0.65 -0.50 0.30 0 1.10 -0.15 1.75 -0.30 0.80 -0.25 1.10 -0.10 1.10 0.50 0 0.60 -0.45 0.80 -1.75 0.80 -0.95 0 -1.75 -0.20 -1.75 -0.50z"/>
  <path d="M44.55 52.15 l0.05 -1.40 0.40 1.25 c0.20 0.70 0.40 1 0.45 0.65 0.05 -0.80 3.65 -0.60 3.95 0.25 0.10 0.40 -0.55 0.60 -2.35 0.60 -2.45 0 -2.55 -0.05 -2.50 -1.35z"/>
  <path d="M130 53 c0 -0.60 1.70 -0.60 3.50 0 1 0.35 0.80 0.40 -1.10 0.45 -1.35 0.05 -2.40 -0.15 -2.40 -0.45z"/>
  <path d="M139.80 53.15 c-0.65 -0.70 -0.25 -1.65 0.70 -1.65 0.55 0 1 0.30 1 0.70 0 0.75 -1.20 1.40 -1.70 0.95z"/>
  <path d="M38.55 51.40 c0.05 -0.90 0.15 -1.25 0.30 -0.75 0.10 0.45 0.55 0.85 0.95 0.85 0.85 0 0.95 -2.30 0.10 -2.65 -0.40 -0.15 -0.25 -0.30 0.25 -0.30 0.75 -0.05 0.90 0.30 0.75 2.10 -0.10 1.75 -0.35 2.15 -1.25 2.25 -1 0.15 -1.15 -0.05 -1.10 -1.50z"/>
  <path d="M146.35 52.65 c-0.60 -0.60 -0.35 -1.10 0.40 -0.85 0.40 0.20 0.75 0.50 0.75 0.75 0 0.55 -0.70 0.60 -1.15 0.10z"/>
  <path d="M76 52 c0 -0.25 0.35 -0.50 0.75 -0.50 0.40 0 0.75 0.25 0.75 0.50 0 0.30 -0.35 0.50 -0.75 0.50 -0.40 0 -0.75 -0.20 -0.75 -0.50z"/>
  <path d="M45.50 51 c0 -0.95 1.20 -3 1.75 -3 0.65 0 1.35 2.45 0.90 3.10 -0.30 0.55 -2.65 0.50 -2.65 -0.10z"/>
  <path d="M98.50 49.35 c0.20 -0.90 1 -2.60 1.75 -3.75 1.10 -1.70 1.60 -2.05 2.45 -1.80 0.60 0.20 1.10 0.35 1.15 0.40 0.05 0.05 -0.50 1.35 -1.25 2.85 -1 2 -1.60 2.70 -2.25 2.55 -0.45 -0.10 -1 0.20 -1.15 0.60 -0.55 1.45 -1.10 0.80 -0.70 -0.85z"/>
  <path d="M128.60 49.70 c-0.85 -0.60 -1.10 -0.60 -1.10 -0.10 -0.05 0.65 -1.50 -2.40 -1.50 -3.10 0 -0.20 0.30 -0.50 0.70 -0.65 0.45 -0.20 1.15 0.60 2 2.20 0.75 1.35 1.30 2.45 1.20 2.45 -0.10 0 -0.70 -0.35 -1.30 -0.80z"/>
  <path d="M138.25 46.75 c-0.45 -2.05 -1.15 -4.40 -1.55 -5.25 -0.45 -0.80 -0.85 -2.10 -0.95 -2.85 -0.10 -0.80 -1 -2.95 -2 -4.85 -0.95 -1.95 -1.75 -3.85 -1.70 -4.25 0 -0.45 0.50 0.20 1.10 1.45 0.70 1.45 1.50 2.30 2.15 2.40 0.85 0.10 1.40 1 2.45 4 0.70 2.10 1.55 4.25 1.80 4.75 0.35 0.65 0.25 0.85 -0.30 0.85 -0.40 0 -0.75 0.45 -0.75 0.95 0 0.70 0.25 0.90 0.90 0.70 0.75 -0.20 1 0.25 1.45 2.55 0.50 3 0.45 3.30 -0.90 3.30 -0.65 0 -1.05 -0.85 -1.70 -3.75z"/>
  <path d="M78.55 48 c-0.35 -0.85 -1.40 -2.35 -2.35 -3.35 -1.20 -1.25 -1.65 -2.10 -1.40 -2.75 0.20 -0.60 -0.05 -1.25 -0.65 -1.70 -0.80 -0.70 -0.80 -0.70 0.35 -0.15 1.90 0.90 7 6.80 5.35 6.20 -0.50 -0.20 -0.60 0.15 -0.45 1.50 0.25 2.15 0.05 2.20 -0.85 0.25z"/>
  <path d="M144.70 44.40 c-0.55 -2.35 -0.60 -3.40 -0.15 -3.10 0.45 0.25 1.15 4.15 0.80 4.50 -0.15 0.15 -0.45 -0.50 -0.65 -1.40z"/>
  <path d="M123.50 44.25 c-0.35 -0.40 -2.05 -1.45 -3.80 -2.30 -3.05 -1.40 -4.05 -2.45 -2.50 -2.45 0.40 0 0.85 0.40 0.95 0.90 0.20 0.80 0.25 0.80 0.30 0 0 -0.50 0.30 -0.95 0.55 -0.95 0.30 -0.05 0.80 -0.10 1.15 -0.15 0.90 -0.15 3 0.95 4 2.15 1.05 1.30 1.05 1.55 0.10 1.55 -0.90 0 -0.95 0.60 -0.15 1.40 0.35 0.35 0.45 0.60 0.30 0.60 -0.15 0 -0.55 -0.35 -0.90 -0.75z"/>
  <path d="M130.15 42.15 c-1.05 -2.45 -1.10 -3.30 -0.05 -2.25 0.35 0.35 1 0.60 1.45 0.60 1 0 1.60 1.85 0.75 2.40 -0.35 0.20 -0.75 0.65 -0.85 1 -0.15 0.40 -0.70 -0.40 -1.30 -1.75z"/>
  <path d="M41.65 42.70 c-0.85 -0.90 -0.80 -1.70 0.10 -1.70 0.40 0 0.75 -0.20 0.75 -0.50 0 -0.25 -0.20 -0.50 -0.50 -0.50 -0.25 0 -0.50 -0.20 -0.50 -0.50 0 -0.25 0.35 -0.50 0.75 -0.50 0.90 0 1 -0.80 0.15 -1.15 -0.40 -0.15 -0.25 -0.30 0.25 -0.30 0.50 -0.05 0.75 -0.30 0.60 -0.60 -0.55 -0.85 0.80 -3.45 1.80 -3.45 0.55 0 0.95 -0.20 0.95 -0.50 0 -0.25 -0.25 -0.50 -0.55 -0.50 -0.30 0 -0.40 -0.45 -0.15 -1.10 0.20 -0.65 0.35 -1.40 0.35 -1.75 0 -0.35 0.15 -0.50 0.35 -0.40 0.20 0.15 0.75 -0.20 1.25 -0.75 0.80 -0.85 2.25 -1.40 2.25 -0.80 0 0.10 -1 1.85 -2.25 3.90 -1.25 2.05 -2.40 4.50 -2.55 5.45 -0.20 0.95 -0.65 1.95 -1 2.25 -0.40 0.30 -0.85 1.35 -1.05 2.30 -0.35 1.45 -0.50 1.65 -1 1.10z"/>
  <path d="M34.45 42.65 c-0.70 -0.15 -0.75 -0.50 -0.35 -2.25 0.60 -2.85 1.30 -3.90 2.45 -3.90 0.80 0 0.90 0.15 0.45 0.95 -0.25 0.55 -0.50 1.40 -0.50 1.90 -0.05 1.60 -1.20 3.45 -2.05 3.30z"/>
  <path d="M49.10 41.70 c-0.85 -0.90 0.05 -2.70 1.40 -2.70 0.85 0 0.90 0.10 0.15 1.65 -0.45 0.85 -0.85 1.65 -0.85 1.65 -0.05 0.05 -0.35 -0.20 -0.70 -0.60z"/>
  <path d="M58.80 41.70 c-0.20 -0.55 2 -1.70 3.25 -1.70 1 0 0.30 0.85 -1.25 1.55 -1.40 0.65 -1.80 0.65 -2 0.15z"/>
  <path d="M106.35 42.20 c-0.35 -0.35 2.50 -2.45 4 -2.90 0.50 -0.15 1.40 0.05 1.95 0.45 0.95 0.70 0.95 0.70 -0.05 0.75 -0.60 0 -1.90 0.45 -3 1 -2.15 1.10 -2.45 1.15 -2.90 0.70z"/>
  <path d="M63 40 c0 -0.25 0.45 -0.50 1 -0.50 0.55 0 1 0.25 1 0.50 0 0.30 -0.45 0.50 -1 0.50 -0.55 0 -1 -0.20 -1 -0.50z"/>
  <path d="M68.75 39.95 c-0.20 -0.30 -0.25 -0.65 -0.10 -0.80 0.35 -0.35 1.35 0.30 1.35 0.90 0 0.60 -0.85 0.60 -1.25 -0.10z"/>
  <path d="M114 39.70 c0 -0.45 0.35 -0.70 0.85 -0.60 1.25 0.25 1.40 1.40 0.20 1.40 -0.60 0 -1.05 -0.30 -1.05 -0.80z"/>
  <path d="M143.05 37.90 c0 -0.45 -0.85 -2.40 -1.80 -4.35 -0.95 -1.90 -1.75 -3.75 -1.75 -4.10 0 -0.30 -0.75 -1.75 -1.70 -3.20 -0.95 -1.40 -1.90 -3.25 -2.10 -4.05 -0.25 -1.10 0.25 -0.60 2 1.90 1.25 1.85 2.30 3.60 2.30 3.90 0 0.35 0.45 1.15 1 1.85 0.55 0.70 1 1.80 1 2.40 0 0.60 0.35 1.95 0.80 3 0.40 1 0.65 2.20 0.55 2.65 -0.20 0.75 -0.25 0.75 -0.30 0z"/>
  <path d="M129.90 36.65 c-0.90 -0.20 -3.05 -3.15 -4.90 -6.55 -0.55 -1 -1.35 -2.35 -1.80 -2.95 -1.65 -2.30 1.15 -0.50 3.05 1.95 1.80 2.30 5.20 8.15 4.60 7.85 -0.05 -0.05 -0.50 -0.15 -0.95 -0.30z"/>
  <path d="M37.15 34.75 c-0.85 -0.95 -0.80 -1.25 0.10 -1.25 0.40 0 0.75 0.45 0.75 1 0 1.15 -0.05 1.20 -0.85 0.25z"/>
  <path d="M117 24.05 c-0.95 -0.75 -3.20 -2.10 -5 -2.90 -1.80 -0.85 -5.25 -2.50 -7.75 -3.65 -6.25 -2.95 -8 -3.50 -10.85 -3.50 -3.75 0 -2.80 -1.10 1.10 -1.35 2.35 -0.10 3.95 0.10 5.75 0.80 1.40 0.55 4.10 1.45 6 2 3.85 1.15 9.70 4.45 9.40 5.40 -0.25 0.75 0.90 1.40 1.30 0.75 0.20 -0.40 1.25 0.15 2.80 1.50 2.25 1.85 2.35 2 1.05 1.70 -0.85 -0.20 -1.60 -0.15 -1.80 0.15 -0.15 0.35 -1 -0.05 -2 -0.90z"/>
  <path d="M62.80 23.75 c-0.15 -0.45 0 -0.75 0.45 -0.75 0.80 0 1 0.80 0.30 1.20 -0.25 0.15 -0.55 -0.05 -0.75 -0.45z"/>
  <path d="M126 22.75 c-0.65 -0.70 -1.05 -1.35 -0.90 -1.55 0.15 -0.15 0.80 0.45 1.40 1.25 1.30 1.85 1.10 2 -0.50 0.30z"/>
  <path d="M119.25 17.50 c-1.35 -1.05 -2.55 -2.25 -2.65 -2.60 -0.10 -0.45 0 -0.40 0.35 0.05 0.60 0.90 3.05 1.30 3.05 0.55 0 -0.30 0.25 -0.40 0.55 -0.25 0.30 0.20 0.40 0.45 0.25 0.60 -0.15 0.15 0.15 0.90 0.70 1.65 1.90 2.65 1.15 2.65 -2.25 0z"/>
  <path d="M132 17.75 c-0.35 -0.45 -0.55 -0.90 -0.40 -1 0.15 -0.15 0.55 0.05 0.90 0.50 0.35 0.45 0.55 0.90 0.40 1 -0.15 0.15 -0.55 -0.05 -0.90 -0.50z"/>
  <path d="M78.35 15.15 c0.30 -0.75 1.10 -0.85 2.10 -0.20 0.45 0.30 0.20 0.50 -0.85 0.65 -1.10 0.15 -1.45 0.05 -1.25 -0.45z"/>
  <path d="M82 14.50 c0 -0.25 0.35 -0.50 0.75 -0.50 0.40 0 0.75 0.25 0.75 0.50 0 0.30 -0.35 0.50 -0.75 0.50 -0.40 0 -0.75 -0.20 -0.75 -0.50z"/>
  <path d="M84.55 13.90 c0.55 -1.05 0.80 -1.10 2.40 -0.20 1.20 0.65 1.20 0.70 -0.80 0.85 -1.85 0.20 -2 0.10 -1.60 -0.65z"/>
  <path d="M51.60 13.85 c-0.75 -0.90 0.45 -2.65 2.55 -3.60 0.90 -0.40 2.30 -1.20 3.10 -1.70 1.80 -1.15 4.75 -1.85 4.75 -1.10 0 0.25 -1.90 1.75 -4.20 3.25 -2.35 1.55 -4.40 3 -4.55 3.30 -0.40 0.70 -1 0.65 -1.65 -0.15z"/>
  <path d="M110.25 12.70 c-4.10 -1.60 -13.15 -4 -17.10 -4.55 -1.55 -0.25 -2.40 -1.65 -1 -1.65 0.40 0 0.35 -0.20 -0.15 -0.50 -0.80 -0.55 2 -0.35 8.25 0.60 5.40 0.80 14.60 4.45 13.95 5.50 -0.15 0.20 0 0.85 0.30 1.40 0.30 0.55 0.45 1 0.40 0.95 -0.10 -0.05 -2.15 -0.85 -4.65 -1.75z"/>
  <path d="M71.35 11.15 c0.30 -0.75 1.45 -0.90 1.85 -0.20 0.15 0.25 -0.25 0.55 -0.90 0.65 -0.85 0.20 -1.15 0.05 -0.95 -0.45z"/>
  <path d="M76 10.10 c0 -0.55 2.45 -1.30 2.90 -0.85 0.40 0.35 0 0.60 -1.55 1 -0.80 0.20 -1.35 0.15 -1.35 -0.15z"/>
  <path d="M79.50 8.95 c0 -0.35 0.50 -0.45 1.25 -0.35 0.70 0.15 1.25 0.05 1.25 -0.15 0 -0.25 0.35 -0.45 0.75 -0.45 1.15 0 0.90 0.85 -0.35 1.20 -1.75 0.45 -2.90 0.35 -2.90 -0.25z"/>
  <path d="M84 8 c0 -0.25 0.30 -0.50 0.70 -0.50 0.40 0 0.90 0.25 1.05 0.50 0.15 0.30 -0.15 0.50 -0.70 0.50 -0.60 0 -1.05 -0.20 -1.05 -0.50z"/>
  <path d="M86.50 7.50 c0 -0.60 1.20 -0.60 3 0 1.05 0.35 0.95 0.40 -0.85 0.45 -1.20 0.05 -2.15 -0.15 -2.15 -0.45z"/>
  <path d="M67.35 4.20 c0.15 -0.40 0.55 -0.70 0.95 -0.70 1.05 0 0.85 0.85 -0.25 1.15 -0.70 0.15 -0.90 0.05 -0.70 -0.45z"/>
  <path d="M111.05 4.05 c-0.45 -0.30 -0.50 -0.55 -0.10 -0.75 0.30 -0.20 0.55 -0.10 0.55 0.20 0 0.30 0.25 0.40 0.50 0.25 0.30 -0.15 0.50 -0.05 0.50 0.20 0 0.65 -0.50 0.70 -1.45 0.10z"/>
  <path d="M107.80 3.05 c-0.80 -0.30 -0.85 -0.45 -0.30 -0.80 0.40 -0.25 0.75 -0.20 0.90 0.15 0.10 0.30 0.50 0.40 0.90 0.25 0.40 -0.15 0.70 0 0.70 0.30 0 0.60 -0.80 0.65 -2.20 0.10z"/>
  <path d="M71.50 2.50 c0 -0.25 0.30 -0.50 0.70 -0.50 0.40 0 0.90 0.25 1.05 0.50 0.15 0.30 -0.15 0.50 -0.70 0.50 -0.60 0 -1.05 -0.20 -1.05 -0.50z"/>
  <path d="M74.85 1.70 c0.15 -0.40 0.55 -0.70 0.95 -0.70 1.05 0 0.85 0.85 -0.25 1.15 -0.70 0.15 -0.90 0.05 -0.70 -0.45z"/>
  <path d="M77 1 c0 -0.25 0.35 -0.50 0.75 -0.50 0.40 0 0.75 0.25 0.75 0.50 0 0.30 -0.35 0.50 -0.75 0.50 -0.40 0 -0.75 -0.20 -0.75 -0.50z"/>
  <path d="M79 0.50 c0 -0.25 1.25 -0.50 2.75 -0.50 1.50 0 2.75 0.25 2.75 0.50 0 0.30 -1.25 0.50 -2.75 0.50 -1.50 0 -2.75 -0.20 -2.75 -0.50z"/>
  <path d="M91.50 0.50 c0 -0.25 1.25 -0.50 2.75 -0.50 1.50 0 2.75 0.25 2.75 0.50 0 0.30 -1.25 0.50 -2.75 0.50 -1.50 0 -2.75 -0.20 -2.75 -0.50z"/>
 </g>
</svg>
