<?xml version="1.0" encoding="utf-8"?>
<!DOCTYPE svg PUBLIC "-//W3C//DTD SVG 1.0//EN" "http://www.w3.org/TR/2001/REC-SVG-20010904/DTD/svg10.dtd">
<svg class="img-fluid" id="outputsvg" xmlns="http://www.w3.org/2000/svg" style="transform: none; transform-origin: 50% 50%; cursor: move; max-height: 302.62px; transition: none 0s ease 0s;" width="400" height="400" viewBox="0 0 4000 4000"><g id="l2fsYm8UXb4xqlkF1KlLTjq" fill="#F1F979" style="transform: none;"><g style="transform: none;"><path id="p1AGL9igdL" d="M1030 3506 c0 -3 70 -258 155 -567 85 -309 154 -563 152 -564 -1 -1 -210 -164 -464 -362 l-462 -361 62 -6 c34 -3 296 -15 582 -27 336 -14 524 -26 531 -33 6 -6 98 -249 204 -541 105 -291 195 -536 199 -543 4 -7 93 217 211 530 112 299 206 546 210 550 3 4 267 17 585 28 319 11 583 22 587 23 6 2 -868 705 -904 728 -7 4 51 221 151 569 89 309 160 564 158 567 -2 2 -211 -133 -464 -300 -253 -167 -473 -312 -489 -321 l-30 -18 -483 326 c-265 179 -484 326 -487 326 -2 0 -4 -2 -4 -4z m1696 -313 c-35 -49 -202 -277 -370 -508 -169 -231 -311 -421 -316 -423 -11 -4 -11 192 -1 406 l6 132 360 239 c198 132 366 240 373 240 7 1 -16 -38 -52 -86z m-1173 -460 c202 -281 367 -514 367 -516 0 -10 -505 162 -512 174 -9 16 -238 847 -238 863 0 15 -10 29 383 -521z m1416 -690 c190 -152 348 -278 350 -280 2 -1 2 -5 0 -7 -7 -6 -1197 388 -1199 398 -1 8 456 162 489 165 7 1 169 -123 360 -276z m-1049 51 c0 -9 -312 -434 -319 -434 -3 0 -193 9 -421 20 -228 11 -430 20 -449 20 -19 0 -31 3 -27 7 6 7 1185 388 1209 392 4 1 7 -2 7 -5z m278 -259 l153 -214 -160 -423 -160 -423 -1 638 c0 350 3 637 8 637 4 0 76 -97 160 -215z"></path></g></g></svg>
