<?xml version="1.0" encoding="utf-8"?>
<!DOCTYPE svg PUBLIC "-//W3C//DTD SVG 1.0//EN" "http://www.w3.org/TR/2001/REC-SVG-20010904/DTD/svg10.dtd">
<svg version="1.0" xmlns="http://www.w3.org/2000/svg" width="1350px" height="1350px" viewBox="0 0 1350 1350" preserveAspectRatio="xMidYMid meet">
 <g fill="#953F14">
  <path d="M490.80 969.90 c-0.90 -1.95 -3 -4.05 -4.65 -4.65 -1.80 -0.45 -3.15 -1.80 -3.15 -2.85 0 -1.20 -1.50 -3 -3.30 -4.20 -2.70 -1.80 -3.30 -4.20 -4.35 -17.10 -0.60 -8.10 -0.45 -24 0.30 -35.10 0.75 -12 0.90 -53.70 0.30 -102 -1.50 -107.55 -1.35 -151.65 0.75 -155.55 1.05 -1.80 2.10 -6.45 2.55 -10.50 0.45 -3.90 2.25 -11.25 4.05 -16.20 1.65 -4.95 4.20 -13.80 5.70 -19.65 1.80 -7.05 5.10 -14.25 9.90 -21.75 3.90 -6.15 9.60 -14.85 12.45 -19.35 7.65 -11.70 21 -25.35 37.95 -38.70 28.35 -22.50 34.80 -26.55 48.15 -30.45 5.10 -1.35 13.80 -4.35 19.20 -6.30 13.05 -5.10 28.35 -6.90 57.60 -7.35 25.65 -0.45 43.35 1.80 62.25 8.10 13.05 4.20 39 17.10 51.15 25.50 5.40 3.75 12.30 7.65 15.45 8.70 3.45 1.05 6.15 3.15 6.90 5.40 0.75 1.95 2.10 3.60 3 3.60 0.75 0 1.50 0.75 1.50 1.65 0 1.05 2.40 4.20 5.25 7.20 8.40 8.55 15 18 22.65 31.50 3.90 6.90 8.55 15 10.50 17.70 7.50 11.25 15 38.10 18 64.95 0.45 4.50 1.35 10.65 1.95 13.50 0.60 2.85 1.05 24.90 0.90 48.75 -0.15 24 0.30 44.70 1.05 46.05 0.60 1.35 0.60 5.70 -0.30 9.75 -0.75 3.90 -1.65 36.30 -2.10 71.70 -0.30 35.55 -1.05 65.70 -1.65 67.20 -0.60 1.35 -2.70 2.55 -4.65 2.55 -2.40 0 -3.60 0.90 -3.60 2.70 0 1.35 -0.60 3.45 -1.20 4.35 -1.65 2.55 -10.80 3.60 -10.80 1.35 0 -0.90 -1.65 -4.20 -3.75 -7.20 -3.60 -5.25 -3.60 -6.30 -3.75 -31.50 -0.15 -119.25 -1.20 -209.55 -2.85 -223.95 -3.45 -31.50 -13.95 -60.90 -29.70 -82.95 -15.15 -21.30 -40.80 -42.75 -61.05 -50.85 -5.10 -2.10 -9.75 -4.20 -10.65 -4.95 -2.40 -1.80 -24.45 -8.55 -36.75 -11.40 -9 -1.95 -15 -2.25 -31.80 -1.50 -28.65 1.50 -43.95 4.95 -63.60 14.40 -21.75 10.50 -32.70 18.45 -52.35 38.25 -15.15 15.15 -17.25 18 -25.05 33.75 -12.45 25.05 -17.10 40.50 -19.95 67.05 -1.95 19.05 -2.25 41.70 -1.80 159.60 0.30 99.90 0 138.75 -1.20 142.50 -1.05 2.85 -3.30 5.85 -5.10 6.75 -1.95 1.05 -4.20 2.55 -5.10 3.45 -2.40 2.40 -3.45 2.10 -5.25 -1.95z"/>
  <path d="M529.80 657.75 c-2.55 -5.55 -2.25 -6.75 1.95 -6.75 1.95 0 4.20 -1.05 4.95 -2.40 0.75 -1.35 2.70 -2.10 4.65 -1.80 l3.30 0.45 -3.45 6.75 c-4.20 8.10 -8.70 9.60 -11.40 3.75z"/>
  <path d="M808.50 648.15 c-2.25 -4.35 -1.95 -5.25 3 -7.35 3.75 -1.80 4.80 -1.65 6.75 0.15 3 3 3 7.20 0 6.15 -1.20 -0.60 -2.55 0.15 -3.15 1.50 -1.20 3.30 -4.65 3 -6.60 -0.45z"/>
  <path d="M792 593.40 c0 -1.20 -1.35 -2.70 -3 -3.15 -1.65 -0.45 -3 -2.25 -3 -3.90 0 -1.50 -0.60 -2.85 -1.35 -2.85 -0.75 0 -4.50 -3.15 -8.25 -6.90 -5.10 -4.95 -6.90 -7.95 -6.90 -11.25 0 -2.40 0.60 -4.35 1.35 -4.35 1.95 0 24.30 24.30 27.60 29.85 l2.70 4.65 -4.50 0 c-3 0 -4.65 -0.75 -4.65 -2.10z"/>
 </g>
 <g fill="#F1F979">
  <path d="M642.30 785.70 c-5.25 -1.65 -14.40 -6.30 -21 -10.65 -6.30 -4.35 -14.25 -9.15 -17.55 -10.65 -7.95 -3.75 -22.95 -20.55 -29.55 -33.30 -9.90 -19.35 -15.60 -44.85 -14.25 -63.60 1.50 -19.50 11.25 -45.75 22.80 -61.50 6.15 -8.25 19.95 -21 22.80 -21 1.05 0 1.95 -0.90 1.95 -1.80 0.15 -3.45 16.95 -12.90 31.50 -17.85 13.20 -4.50 15.75 -4.95 34.50 -4.95 15.90 0 21.75 0.60 27 2.70 3.75 1.35 10.35 3.60 14.85 4.80 16.05 4.50 27.15 11.40 40.65 25.50 13.65 14.40 18.60 20.70 20.25 26.25 0.60 1.95 3.30 7.65 6.15 12.75 2.70 5.10 5.85 13.65 6.90 19.50 2.85 15.15 1.95 39.90 -1.80 50.70 -1.65 4.95 -3 10.20 -3 11.70 0 4.35 -5.70 14.70 -12.75 22.95 -3.45 4.20 -7.35 9.60 -8.70 12.15 -3.15 6.15 -16.95 18.30 -23.85 21.15 -3.15 1.20 -5.70 2.70 -5.70 3.30 0 0.75 -3.30 3 -7.50 5.25 -16.65 9.15 -63 12.75 -83.70 6.60z"/>
  <path d="M529.80 655.65 c-1.65 -0.90 -1.50 -3 0.30 -11.10 7.65 -32.70 21.45 -56.70 46.35 -79.95 11.70 -10.80 16.50 -14.10 31.80 -21.60 25.20 -12.30 35.25 -15.15 57 -16.05 29.25 -1.20 57 4.95 81.60 18.30 15.45 8.25 24.60 15.30 30.45 23.25 2.40 3.30 4.95 6 5.40 6 2.10 0 9.30 7.65 8.55 9 -0.45 0.75 0.60 1.65 2.25 2.25 1.65 0.45 3 1.80 3 3 0 1.05 0.60 2.25 1.35 2.55 1.95 0.75 13.20 22.05 17.25 33.15 3.75 9.75 4.35 17.85 1.50 20.55 -0.75 0.60 -3 1.50 -4.80 1.80 -3.30 0.45 -4.05 -0.75 -7.65 -11.55 -6.90 -20.25 -16.65 -37.95 -27.30 -49.50 -6.60 -7.20 -45.30 -33.60 -55.50 -37.95 -13.50 -5.85 -22.35 -7.05 -48.60 -7.05 l-25.50 0.15 -14.40 5.40 c-42.45 15.90 -70.35 44.25 -84.30 85.20 -2.10 6.15 -4.20 13.05 -4.80 15.45 -1.65 7.65 -8.70 12.15 -13.95 8.70z"/>
 </g>
</svg>
